TITLE ""
FILE "Step1_Track24.mp3" MP3
  TRACK 01 AUDIO
    TITLE "Step1_Track24_01"
    INDEX 01 00:00:00
  TRACK 02 AUDIO
    TITLE "Step1_Track24_02"
    INDEX 01 00:00:24
  TRACK 03 AUDIO
    TITLE "Step1_Track24_03"
    INDEX 01 00:02:05
  TRACK 04 AUDIO
    TITLE "Step1_Track24_04"
    INDEX 01 00:02:62
  TRACK 05 AUDIO
    TITLE "Step1_Track24_05"
    INDEX 01 00:03:60
  TRACK 06 AUDIO
    TITLE "Step1_Track24_06"
    INDEX 01 00:04:08
  TRACK 07 AUDIO
    TITLE "Step1_Track24_07"
    INDEX 01 00:05:72
  TRACK 08 AUDIO
    TITLE "Step1_Track24_08"
    INDEX 01 00:06:09
  TRACK 09 AUDIO
    TITLE "Step1_Track24_09"
    INDEX 01 00:07:04
  TRACK 10 AUDIO
    TITLE "Step1_Track24_10"
    INDEX 01 00:07:22
  TRACK 11 AUDIO
    TITLE "Step1_Track24_11"
    INDEX 01 00:09:21
  TRACK 12 AUDIO
    TITLE "Step1_Track24_12"
    INDEX 01 00:09:39
  TRACK 13 AUDIO
    TITLE "Step1_Track24_13"
    INDEX 01 00:10:36
  TRACK 14 AUDIO
    TITLE "Step1_Track24_14"
    INDEX 01 00:10:52
  TRACK 15 AUDIO
    TITLE "Step1_Track24_15"
    INDEX 01 00:12:47
  TRACK 16 AUDIO
    TITLE "Step1_Track24_16"
    INDEX 01 00:12:72
  TRACK 17 AUDIO
    TITLE "Step1_Track24_17"
    INDEX 01 00:13:64
  TRACK 18 AUDIO
    TITLE "Step1_Track24_18"
    INDEX 01 00:14:07
  TRACK 19 AUDIO
    TITLE "Step1_Track24_19"
    INDEX 01 00:16:13
  TRACK 20 AUDIO
    TITLE "Step1_Track24_20"
    INDEX 01 00:16:39
  TRACK 21 AUDIO
    TITLE "Step1_Track24_21"
    INDEX 01 00:17:32
  TRACK 22 AUDIO
    TITLE "Step1_Track24_22"
    INDEX 01 00:17:50
  TRACK 23 AUDIO
    TITLE "Step1_Track24_23"
    INDEX 01 00:19:49
  TRACK 24 AUDIO
    TITLE "Step1_Track24_24"
    INDEX 01 00:19:64
  TRACK 25 AUDIO
    TITLE "Step1_Track24_25"
    INDEX 01 00:20:68
  TRACK 26 AUDIO
    TITLE "Step1_Track24_26"
    INDEX 01 00:21:10
  TRACK 27 AUDIO
    TITLE "Step1_Track24_27"
    INDEX 01 00:23:64
  TRACK 28 AUDIO
    TITLE "Step1_Track24_28"
    INDEX 01 00:24:07
  TRACK 29 AUDIO
    TITLE "Step1_Track24_29"
    INDEX 01 00:25:14
  TRACK 30 AUDIO
    TITLE "Step1_Track24_30"
    INDEX 01 00:25:22
  TRACK 31 AUDIO
    TITLE "Step1_Track24_31"
    INDEX 01 00:27:46
  TRACK 32 AUDIO
    TITLE "Step1_Track24_32"
    INDEX 01 00:27:66
  TRACK 33 AUDIO
    TITLE "Step1_Track24_33"
    INDEX 01 00:28:58
  TRACK 34 AUDIO
    TITLE "Step1_Track24_34"
    INDEX 01 00:29:08
  TRACK 35 AUDIO
    TITLE "Step1_Track24_35"
    INDEX 01 00:31:30
  TRACK 36 AUDIO
    TITLE "Step1_Track24_36"
    INDEX 01 00:31:38
  TRACK 37 AUDIO
    TITLE "Step1_Track24_37"
    INDEX 01 00:32:42
  TRACK 38 AUDIO
    TITLE "Step1_Track24_38"
    INDEX 01 00:32:55
  TRACK 39 AUDIO
    TITLE "Step1_Track24_39"
    INDEX 01 00:34:52
  TRACK 40 AUDIO
    TITLE "Step1_Track24_40"
    INDEX 01 00:34:74
  TRACK 41 AUDIO
    TITLE "Step1_Track24_41"
    INDEX 01 00:35:71
  TRACK 42 AUDIO
    TITLE "Step1_Track24_42"
    INDEX 01 00:36:16
  TRACK 43 AUDIO
    TITLE "Step1_Track24_43"
    INDEX 01 00:38:11
